<svg id="Calque_1" data-name="Calque 1" xmlns="http://www.w3.org/2000/svg" viewBox="0 0 28.36 27.04">
  <defs>
    <style>
      .cls-1 {
        fill: #3277ff;
        stroke: #000;
        stroke-miterlimit: 10;
        stroke-width: 0.75px;
      }
    </style>
  </defs>
  <g>
    <rect class="cls-1" x="0.38" y="0.38" width="27.61" height="26.29"/>
    <g>
      <path d="M3.43,3.76l1.06,3a12.68,12.68,0,0,1,.43,1.38H5c.12-.45.28-.89.45-1.38l1-3h1L5.37,9.15H4.43l-2-5.39Z"/>
      <path d="M13.17,6.41a2.63,2.63,0,0,1-2.68,2.86A2.56,2.56,0,0,1,7.91,6.5a2.63,2.63,0,0,1,2.67-2.86A2.55,2.55,0,0,1,13.17,6.41ZM8.9,6.47c0,1.17.67,2.07,1.63,2.07s1.64-.88,1.64-2.1c0-.91-.46-2.07-1.62-2.07S8.9,5.44,8.9,6.47Z"/>
      <path d="M15.58,2.21V3.76H17v.75H15.58v2.9c0,.67.19,1.05.74,1.05a2.43,2.43,0,0,0,.57-.07l0,.73a2.34,2.34,0,0,1-.87.14A1.41,1.41,0,0,1,15,8.85a2.05,2.05,0,0,1-.37-1.41V4.51h-.84V3.76h.84V2.47Z"/>
      <path d="M18.09,5.44c0-.63,0-1.18-.05-1.68h.86l0,1.06H19a1.61,1.61,0,0,1,1.49-1.18,1.2,1.2,0,0,1,.28,0V4.6a1.13,1.13,0,0,0-.34,0A1.37,1.37,0,0,0,19.1,5.82a3,3,0,0,0,0,.46V9.15h-1Z"/>
      <path d="M22.16,6.63A1.72,1.72,0,0,0,24,8.5a3.48,3.48,0,0,0,1.49-.28l.16.7a4.23,4.23,0,0,1-1.79.34,2.51,2.51,0,0,1-2.65-2.72,2.62,2.62,0,0,1,2.53-2.9A2.29,2.29,0,0,1,26,6.18a3.52,3.52,0,0,1,0,.45ZM25,5.93a1.4,1.4,0,0,0-1.36-1.59,1.62,1.62,0,0,0-1.5,1.59Z"/>
      <path d="M4.59,14.6h1v7.9h-1Z"/>
      <path d="M12.09,19.76a2.63,2.63,0,0,1-2.68,2.86,2.56,2.56,0,0,1-2.58-2.77A2.63,2.63,0,0,1,9.5,17,2.56,2.56,0,0,1,12.09,19.76Zm-4.27.06c0,1.18.68,2.07,1.63,2.07s1.64-.88,1.64-2.09c0-.92-.46-2.07-1.62-2.07S7.82,18.79,7.82,19.82Z"/>
      <path d="M18,17.11c0,.39,0,.83,0,1.48v3.13a3.07,3.07,0,0,1-.77,2.46,2.85,2.85,0,0,1-2,.65,3.49,3.49,0,0,1-1.79-.45l.25-.75a2.94,2.94,0,0,0,1.58.43c1,0,1.73-.53,1.73-1.88v-.6h0a1.92,1.92,0,0,1-1.71.9,2.41,2.41,0,0,1-2.29-2.63A2.59,2.59,0,0,1,15.36,17a1.78,1.78,0,0,1,1.68.94h0l.05-.82Zm-1,2.13a1.59,1.59,0,0,0-.05-.45,1.42,1.42,0,0,0-1.37-1c-.94,0-1.6.79-1.6,2,0,1.05.53,1.93,1.59,1.93a1.42,1.42,0,0,0,1.35-1,1.61,1.61,0,0,0,.08-.52Z"/>
      <path d="M24.42,19.76a2.63,2.63,0,0,1-2.68,2.86,2.56,2.56,0,0,1-2.58-2.77A2.63,2.63,0,0,1,21.83,17,2.56,2.56,0,0,1,24.42,19.76Zm-4.27.06c0,1.18.67,2.07,1.63,2.07s1.64-.88,1.64-2.09c0-.92-.46-2.07-1.62-2.07S20.15,18.79,20.15,19.82Z"/>
    </g>
  </g>
</svg>
